<svg id="Слой_1" xmlns="http://www.w3.org/2000/svg" viewBox="0 0 1280 800"><style>.st0{fill:#f55d2d}</style><path d="M260.4 219.2c18.2-3.2 42-6 72.4-6 37.3 0 64.6 9.2 81.9 25.9 16 14.8 25.6 37.4 25.6 65.1 0 28.2-7.8 50.3-22.5 66.5-19.9 22.6-52.4 34.2-89.3 34.2-11.3 0-21.7-.5-30.3-2.8v124.6h-37.7V219.2zm37.7 150.1c8.2 2.3 18.6 3.2 31.2 3.2 45.5 0 73.2-23.5 73.2-66.5 0-41.1-27.3-60.9-68.9-60.9-16.5 0-29 1.4-35.5 3.2v121zM485.7 526.7c.9-15.2 1.7-37.9 1.7-57.7V198.9h37.7v140.3h.9c13.4-24.9 37.7-41.1 71.5-41.1 52 0 88.8 46.2 88.4 114 0 79.9-47.2 119.6-94 119.6-30.3 0-54.6-12.5-70.2-42h-1.3l-1.7 36.9h-33zm39.5-89.6c0 5.1.9 10.2 1.7 14.8 7.4 28.2 29.5 47.6 57.2 47.6 39.9 0 63.7-34.6 63.7-85.9 0-44.8-21.7-83.1-62.4-83.1-26 0-50.3 18.9-58.1 49.9-.9 4.6-2.2 10.2-2.2 16.6v40.1zM734 198.9h38.1v327.8H734V198.9zM1026 413.1c0 82.6-53.7 118.6-104.4 118.6-56.8 0-100.5-44.3-100.5-115 0-74.8 45.9-118.6 104-118.6 60.2.1 100.9 46.7 100.9 115zm-166.4 2.3c0 48.9 26.4 85.9 63.7 85.9 36.4 0 63.7-36.5 63.7-86.8 0-37.9-17.8-85.9-62.8-85.9-45.1 0-64.6 44.3-64.6 86.8z"/><g><path class="st0" d="M161 218h36v39h-36z"/><path d="M161 296v124.5c0 60.9-20.5 77.1-54.3 77.1-12.6 0-24.1-2.8-31.9-6L69 524.4c9.5 4.2 26 7.4 39.9 7.4 50.3 0 88-25.4 88-108V296H161z"/></g><g><path class="st0" d="M1077.1 604.7c9.8 6.9 23.2 11.9 37.6 15l5.4-31.7c-13.5-3.3-24.9-8.5-33.4-14.2l-9.6 30.9z"/><path d="M1221.4 302l-1.7 31h-.9c-9.1-12-29-36.8-65.4-36.8-48.1 0-94.5 43.9-94.5 119.6 0 61.9 37.3 109.8 89.3 109.8 32.5 0 55-18.6 66.7-36.6h-.9v24.3c0 51.8-23.4 74.3-57.6 77.5l-5 32.2c25.1-.8 53.4-7.6 72.5-26.6 20.4-19.4 31.1-50.8 31.1-102V364.6c0-27.2-1.1-43.6-.2-62.6h-33.4zm-7.4 129.6c0 6.9-.2 14.8-2.4 21.7-8.2 25.9-29.1 41.5-52.5 41.5-41.2 0-61.8-36.5-61.8-80.3 0-51.7 26.1-84.5 62.5-84.5 27.7 0 45.7 19.4 52.7 42.9 1.7 5.5 1.5 11.5 1.5 18.5v40.2z"/></g><path class="st0" d="M160.6 156.4h611.5v23.5H160.6zM69 596.7h957v23.5H69z"/></svg>